<svg fill="#000000" xmlns="http://www.w3.org/2000/svg"  viewBox="0 0 24 24" width="24px" height="24px"><path d="M 9.5625 0 C 8.804688 0.121094 8.175781 0.949219 8 2 C 7.800781 3.199219 8.292969 4.300781 9.09375 4.5 C 9.894531 4.601563 10.800781 3.699219 11 2.5 C 11.199219 1.300781 10.707031 0.199219 9.90625 0 C 9.792969 -0.0117188 9.671875 -0.015625 9.5625 0 Z M 14.1875 0 C 13.386719 0.101563 12.894531 1.199219 13.09375 2.5 C 13.195313 3.699219 14.105469 4.601563 14.90625 4.5 C 15.707031 4.300781 16.199219 3.199219 16 2 C 15.800781 0.800781 14.988281 -0.101563 14.1875 0 Z M 6.09375 1 C 5.59375 1.078125 5.179688 1.710938 5.09375 2.5 C 4.992188 3.300781 5.398438 4.085938 6 4.1875 C 6.601563 4.1875 7.1875 3.585938 7.1875 2.6875 C 7.289063 1.789063 6.914063 1.101563 6.3125 1 C 6.238281 0.988281 6.164063 0.988281 6.09375 1 Z M 17.6875 1 C 17.085938 1.101563 16.710938 1.789063 16.8125 2.6875 C 16.8125 3.585938 17.398438 4.1875 18 4.1875 C 18.601563 4.085938 19.007813 3.398438 18.90625 2.5 C 18.804688 1.601563 18.289063 1 17.6875 1 Z M 3.59375 1.90625 C 3.09375 1.90625 2.6875 2.488281 2.6875 3.1875 C 2.6875 3.886719 3.09375 4.5 3.59375 4.5 C 4.09375 4.5 4.5 3.886719 4.5 3.1875 C 4.5 2.488281 4.09375 1.90625 3.59375 1.90625 Z M 20.40625 1.90625 C 19.90625 1.90625 19.5 2.488281 19.5 3.1875 C 19.5 3.886719 19.90625 4.5 20.40625 4.5 C 20.90625 4.5 21.3125 3.886719 21.3125 3.1875 C 21.3125 2.488281 20.90625 1.90625 20.40625 1.90625 Z M 1.6875 3.1875 C 1.289063 3.289063 1.085938 3.8125 1.1875 4.3125 C 1.289063 4.914063 1.695313 5.289063 2.09375 5.1875 C 2.492188 5.085938 2.695313 4.59375 2.59375 4.09375 C 2.492188 3.492188 2.085938 3.085938 1.6875 3.1875 Z M 22.3125 3.1875 C 21.914063 3.085938 21.507813 3.492188 21.40625 4.09375 C 21.304688 4.59375 21.507813 5.113281 21.90625 5.3125 C 22.304688 5.414063 22.710938 5.007813 22.8125 4.40625 C 22.914063 3.804688 22.710938 3.289063 22.3125 3.1875 Z M 0.6875 4.59375 C 0.488281 4.695313 0.1875 5 0.1875 5.5 C 0.1875 6 0.414063 6.40625 0.8125 6.40625 C 1.113281 6.40625 1.3125 6 1.3125 5.5 C 1.3125 5 1.085938 4.59375 0.6875 4.59375 Z M 23.3125 4.6875 C 23.011719 4.6875 22.6875 5.09375 22.6875 5.59375 C 22.6875 5.992188 22.914063 6.40625 23.3125 6.40625 C 23.613281 6.40625 23.90625 6 23.90625 5.5 C 23.90625 5 23.613281 4.6875 23.3125 4.6875 Z M 7 5.59375 C 5.300781 5.59375 0.101563 6.386719 0 10.6875 C -0.101563 14.988281 2.6875 16.289063 2.6875 20.6875 C 2.6875 22.289063 3.792969 24.09375 5.59375 24.09375 C 8.292969 24.09375 9 22.605469 9 20.90625 C 9.101563 17.804688 6.09375 17.394531 6.09375 14.59375 C 6.09375 11.09375 9.90625 11.199219 9.90625 8 C 9.90625 5.800781 8 5.59375 7 5.59375 Z M 16.8125 5.59375 C 15.8125 5.59375 13.90625 5.800781 13.90625 8 C 13.90625 11.101563 17.6875 11.09375 17.6875 14.59375 C 17.6875 17.394531 14.710938 17.707031 14.8125 20.90625 C 14.914063 22.605469 15.488281 24.09375 18.1875 24.09375 C 20.085938 24.09375 21.09375 22.289063 21.09375 20.6875 C 21.09375 16.289063 24.011719 14.988281 23.8125 10.6875 C 23.914063 6.386719 18.710938 5.59375 16.8125 5.59375 Z"/></svg>