<svg id="Layer_1" data-name="Layer 1" xmlns="http://www.w3.org/2000/svg" width="0.21in" height="0.28in" viewBox="0 0 14.87 20.02">
  <defs>
    <style>
      .cls-1 {
        fill: #6798ba;
      }
    </style>
  </defs>
  <path class="cls-1" d="M14.48,8.8c-.11-.31-.48-.34-.78-.34H12.63c-.33,0-.94,0-1-.25V8.06a2.9,2.9,0,0,0,1.25-.29,1.9,1.9,0,0,0,.87-.88,2,2,0,0,0-.42-2.35A2,2,0,0,0,12.25,4h-.12a1.58,1.58,0,0,0-.45-1.25,1.56,1.56,0,0,0-1.55-.39,2.23,2.23,0,0,0-.32-.68A2.29,2.29,0,0,0,8.47.78,2.35,2.35,0,0,0,7,.9,2.39,2.39,0,0,0,3.43,2.15a2.17,2.17,0,0,0-.12.79,1.48,1.48,0,0,0-1,.42,1.51,1.51,0,0,0-.44,1A1.81,1.81,0,0,0,.52,6.12a1.86,1.86,0,0,0,2,1.8s-.06,4.9-.16,6.6a26.8,26.8,0,0,1-.49,3.87h0l-.18.83a.69.69,0,0,0,.66.8h9.47a.69.69,0,0,0,.66-.8l-.19-.85h0s0-.12-.05-.23c-.07-1.06,1.68-1.86,2.27-3C15,14.31,15,10.13,14.48,8.8ZM10.21,3.21a2.09,2.09,0,0,0,0-.25,1,1,0,0,1,1.3,1.12,2.3,2.3,0,0,0-.43.18,1.82,1.82,0,0,0-.42.36l-.11-.1a1.55,1.55,0,0,0-.73-.32A2.14,2.14,0,0,0,10.21,3.21ZM1.13,6.12A1.19,1.19,0,0,1,2,5a1.21,1.21,0,0,0,.7.67,1.55,1.55,0,0,1-.32-1,1.23,1.23,0,0,1,.37-.84,1.32,1.32,0,0,1,.65-.34A2.11,2.11,0,0,0,3.65,4a1.59,1.59,0,0,0-.15.65,1.61,1.61,0,0,0,.28,1,1.71,1.71,0,0,0,1.68.59,1.51,1.51,0,0,1-1.28-.83A1.3,1.3,0,0,1,5.57,3.54a1.5,1.5,0,0,1,1.15,1,1.45,1.45,0,0,0-1-1.45,1.59,1.59,0,0,0-1,0,1.75,1.75,0,0,0-.85.59l-.09.16A2.27,2.27,0,0,1,4,2.38a2,2,0,0,1,1.3-1,2,2,0,0,1,1.64.25A2.44,2.44,0,0,1,8,3.11a2,2,0,0,0-.47-1.76A2,2,0,0,1,9.44,2a2.13,2.13,0,0,1,.28,2.22,1.4,1.4,0,0,0-.5,0,1.25,1.25,0,0,0-.89.89,1.59,1.59,0,0,1,1-.43,1.21,1.21,0,0,1,.87.29,1.23,1.23,0,0,1,.46.8,1.61,1.61,0,0,1-.24,1,1.2,1.2,0,0,0,.7-1.05,1.45,1.45,0,0,0-.28-1,1.74,1.74,0,0,1,1.34-.19,1.52,1.52,0,0,1,1.08,1.19c.1.55-.24,1.5-1.75,1.5H9.6a1.56,1.56,0,0,0-.77-1.42,1.34,1.34,0,0,1,.5,1,1.53,1.53,0,0,1-.68,1.26,1.18,1.18,0,0,1-1.25,0,1.63,1.63,0,0,0,.13-.37A2,2,0,0,0,7.07,6,1.86,1.86,0,0,1,7,8a1.73,1.73,0,0,1-2.06.72,1.59,1.59,0,0,1-1-1.48H2.56A1.31,1.31,0,0,1,1.13,6.12Zm8.19,9.27a.42.42,0,0,1-.06.84.42.42,0,1,1,.06-.84Zm-.59-4a.62.62,0,0,1,1.24.09.62.62,0,1,1-1.24-.09Zm.94,2.45a.55.55,0,0,1-.51-.59.56.56,0,1,1,.51.59ZM8.29,9.89a.5.5,0,0,1,0,.21.61.61,0,0,1-.65.57A.62.62,0,0,1,7.09,10c-1.45.28-2.6.83-3.71.29,0,0,0-1.89,0-2.46A2.15,2.15,0,0,0,4.9,9.39a2.24,2.24,0,0,0,2.37-.65A1.76,1.76,0,0,0,9.57,8h1.16v2.31A6,6,0,0,0,8.29,9.89ZM8,14.09a.49.49,0,1,1-.07,1,.49.49,0,1,1,.07-1Zm-.55-.69A.7.7,0,0,1,7.58,12a.7.7,0,0,1,.64.74A.71.71,0,0,1,7.48,13.4Zm.63,2.83a.46.46,0,0,1,.43.5.46.46,0,0,1-.5.43.46.46,0,0,1-.43-.5A.47.47,0,0,1,8.11,16.23ZM3.33,17.6h0a22.26,22.26,0,0,0,.49-3.46c.11-1.73.15-2.9.15-2.9h.62s0,1.17-.15,2.9-.18,3.5-.18,3.5l-1.12.73Zm-.07,1.51c1-.21,2-1.49,4.08-1.49h0a4.21,4.21,0,0,1,1.31.19v0a.37.37,0,0,1,.4-.35.38.38,0,0,1,.35.4.42.42,0,0,1-.12.24,8.12,8.12,0,0,0,2.14,1Zm7.43-1.59a15.23,15.23,0,0,1,.14-3.5,23,23,0,0,0,.41,3.44,4.85,4.85,0,0,0,.27.8ZM14,14a1.24,1.24,0,0,1-1.24,1.3c-.78,0-.9-.9-.9-.9v.05c0-.73-.07-1.83-.1-2.93.18,0,.58-.15.58-.86s-.1-1.3,1-1.3S14,13.32,14,14Z"/>
  <path d="M14,8.27c-.12-.31-.48-.34-.78-.34H12.11c-.33,0-.95,0-1-.25a.62.62,0,0,0,0-.15,2.91,2.91,0,0,0,1.26-.29,2,2,0,0,0,.87-.87,2,2,0,0,0,.17-1.25A2,2,0,0,0,12.85,4a2,2,0,0,0-1.12-.52H11.6a1.56,1.56,0,0,0-2-1.65,2.25,2.25,0,0,0-.33-.68A2.35,2.35,0,0,0,8,.25a2.41,2.41,0,0,0-1.5.12A2.4,2.4,0,0,0,2.9,1.62a2.16,2.16,0,0,0-.11.79A1.47,1.47,0,0,0,1.37,3.84,1.8,1.8,0,0,0,0,5.59a1.85,1.85,0,0,0,2,1.8S2,12.3,1.86,14a28.6,28.6,0,0,1-.49,3.87h0l-.18.84a.67.67,0,0,0,.66.79h9.46A.68.68,0,0,0,12,18.7l-.19-.86h0a2.23,2.23,0,0,0,0-.23c-.07-1.06,1.68-1.86,2.26-2.94C14.48,13.78,14.44,9.61,14,8.27ZM9.68,2.68a2.09,2.09,0,0,0,0-.25A1,1,0,0,1,11,3.55a2.05,2.05,0,0,0-.43.18,1.91,1.91,0,0,0-.43.37A.57.57,0,0,0,10,4a1.51,1.51,0,0,0-.73-.32A2,2,0,0,0,9.68,2.68ZM.6,5.59a1.19,1.19,0,0,1,.88-1.15,1.16,1.16,0,0,0,.7.67,1.56,1.56,0,0,1-.33-1,1.29,1.29,0,0,1,.38-.84,1.16,1.16,0,0,1,.64-.33,2,2,0,0,0,.25.54A1.59,1.59,0,0,0,3,4.12a1.68,1.68,0,0,0,.28,1,1.73,1.73,0,0,0,1.69.59,1.5,1.5,0,0,1-1.28-.83,1.29,1.29,0,0,1,.13-1.34A1.31,1.31,0,0,1,5.05,3,1.52,1.52,0,0,1,6.2,4a1.46,1.46,0,0,0-1-1.45,1.59,1.59,0,0,0-1,0,1.68,1.68,0,0,0-.84.6.78.78,0,0,0-.1.15,2.42,2.42,0,0,1,.23-1.45,2.1,2.1,0,0,1,1.3-1,2.06,2.06,0,0,1,1.65.25,2.42,2.42,0,0,1,1,1.52A2,2,0,0,0,7,.83a1.92,1.92,0,0,1,1.94.62,2.07,2.07,0,0,1,.28,2.21,1.42,1.42,0,0,0-.5,0,1.24,1.24,0,0,0-.88.89,1.6,1.6,0,0,1,1-.43,1.23,1.23,0,0,1,.87.29,1.24,1.24,0,0,1,.45.8,1.54,1.54,0,0,1-.23,1,1.22,1.22,0,0,0,.7-1,1.47,1.47,0,0,0-.29-1,1.7,1.7,0,0,1,1.34-.2A1.52,1.52,0,0,1,12.7,5.25c.1.55-.23,1.5-1.75,1.5H9.07a1.47,1.47,0,0,0,0-.47,1.58,1.58,0,0,0-.72-1,1.37,1.37,0,0,1,.5,1,1.56,1.56,0,0,1-.68,1.26,1.2,1.2,0,0,1-1.25,0A2.84,2.84,0,0,0,7,7.28,2,2,0,0,0,6.55,5.5a1.88,1.88,0,0,1-.07,2,1.74,1.74,0,0,1-2.07.72,1.59,1.59,0,0,1-1-1.48H2A1.32,1.32,0,0,1,.6,5.59Zm8.2,9.27a.43.43,0,0,1,.39.45.42.42,0,0,1-.45.39.42.42,0,0,1-.39-.45A.41.41,0,0,1,8.8,14.86Zm-.59-4a.61.61,0,0,1,.66-.58.62.62,0,0,1-.08,1.24A.61.61,0,0,1,8.21,10.86Zm.94,2.44a.54.54,0,0,1-.51-.59.55.55,0,1,1,.51.59ZM7.77,9.36a1.49,1.49,0,0,1,0,.21.63.63,0,0,1-.66.57.61.61,0,0,1-.56-.63c-1.45.28-2.61.83-3.72.3,0,0,0-1.9,0-2.47A2.14,2.14,0,0,0,4.38,8.87a2.25,2.25,0,0,0,2.36-.66,1.77,1.77,0,0,0,2.31-.72h1.16V9.81A5.88,5.88,0,0,0,7.77,9.36Zm-.27,4.2a.5.5,0,0,1,.46.52.49.49,0,0,1-.53.45A.48.48,0,0,1,7,14,.48.48,0,0,1,7.5,13.56ZM7,12.87a.69.69,0,0,1,.1-1.38.68.68,0,0,1,.64.74A.69.69,0,0,1,7,12.87Zm.64,2.83a.47.47,0,0,1,.43.5.48.48,0,0,1-.5.44.47.47,0,0,1,.07-.94ZM2.8,17.07h0a23.71,23.71,0,0,0,.49-3.46c.11-1.73.15-2.9.15-2.9h.62s-.05,1.17-.16,2.9-.17,3.5-.17,3.5l-1.12.73Zm-.06,1.51c1-.21,2-1.49,4.07-1.49h0a4.53,4.53,0,0,1,1.31.19s0,0,0,0a.38.38,0,0,1,.4-.35.37.37,0,0,1,.35.4.35.35,0,0,1-.12.24,8.27,8.27,0,0,0,2.14,1ZM10.16,17a14.94,14.94,0,0,1,.15-3.5,22,22,0,0,0,.41,3.45,5.52,5.52,0,0,0,.26.79Zm3.27-3.51a1.23,1.23,0,0,1-1.24,1.3c-.77,0-.9-.9-.9-.9v0c0-.73-.07-1.83-.09-2.93.18,0,.58-.15.58-.86s-.11-1.29,1-1.29S13.43,12.79,13.43,13.48Z"/>
</svg>
